name rise31.4854peak64.571fall78.6902.mot
datacolumns 19
datarows 32
range 7.89997000000000 7.95163400000000
endheader
time	ground_force1_vx	ground_force1_vy	ground_force1_vz	ground_force1_px	ground_force1_py	ground_force1_pz	ground_force2_vx	ground_force2_vy	ground_force2_vz	ground_force2_px	ground_force2_py	ground_force2_pz	ground_torque1_x	ground_torque1_y	ground_torque1_z	ground_torque2_x	ground_torque2_y	ground_torque2_z	
7.89997000000000	-50.82097500000000	824.83927900000003	55.17524800000000	0.11486000000000	0.00000000000000	0.10896700000000	-5.89074900000000	20.53335800000000	5.81089900000000	0.00000000000000	0.00000000000000	0.00000000000000	0.00000000000000	23.23763500000000	0.00000000000000	0.00000000000000	2.07209500000000	0.00000000000000	
7.90163500000000	-51.13290500000000	822.42199500000004	54.94234700000000	0.11431300000000	0.00000000000000	0.10895300000000	-7.13617200000000	26.05811900000000	7.18495900000000	0.34800700000000	0.00000000000000	-0.05867300000000	0.00000000000000	23.16114700000000	0.00000000000000	0.00000000000000	4.65775800000000	0.00000000000000	
7.90330500000000	-51.45871700000000	819.88363500000003	54.68731100000000	0.11377100000000	0.00000000000000	0.10893600000000	-8.35447600000000	31.90178600000000	8.58107800000000	0.35326500000000	0.00000000000000	-0.05921000000000	0.00000000000000	23.08517600000000	0.00000000000000	0.00000000000000	5.62929400000000	0.00000000000000	
7.90496700000000	-51.79900400000000	817.22471700000006	54.41017600000000	0.11323300000000	0.00000000000000	0.10891600000000	-9.50098300000000	37.94129900000000	9.95816400000000	0.35799800000000	0.00000000000000	-0.05972300000000	0.00000000000000	23.00984800000000	0.00000000000000	0.00000000000000	6.60488500000000	0.00000000000000	
7.90664000000000	-52.15429900000000	814.44576900000004	54.11101400000000	0.11269700000000	0.00000000000000	0.10889300000000	-10.53544200000000	44.05782300000000	11.27793900000000	0.36227500000000	0.00000000000000	-0.06021400000000	0.00000000000000	22.93528000000000	0.00000000000000	0.00000000000000	7.55806300000000	0.00000000000000	
7.90830700000000	-52.52506400000000	811.54732600000000	53.78992900000000	0.11216400000000	0.00000000000000	0.10886800000000	-11.42471100000000	50.14562800000000	12.50753700000000	0.36615000000000	0.00000000000000	-0.06068900000000	0.00000000000000	22.86157300000000	0.00000000000000	0.00000000000000	8.46543600000000	0.00000000000000	
7.90996700000000	-52.91169700000000	808.52992099999994	53.44706300000000	0.11163300000000	0.00000000000000	0.10884000000000	-12.14454700000000	56.11884000000000	13.62137000000000	0.36967100000000	0.00000000000000	-0.06114900000000	0.00000000000000	22.78882100000000	0.00000000000000	0.00000000000000	9.30809700000000	0.00000000000000	
7.91164200000000	-53.31451700000000	805.39407900000003	53.08258700000000	0.11110400000000	0.00000000000000	0.10881000000000	-12.68043200000000	61.91560800000000	14.60213100000000	0.37288000000000	0.00000000000000	-0.06159700000000	0.00000000000000	22.71710200000000	0.00000000000000	0.00000000000000	10.07247300000000	0.00000000000000	
7.91330200000000	-53.73377000000000	802.14031000000000	52.69670500000000	0.11057500000000	0.00000000000000	0.10877600000000	-13.02747700000000	67.49965300000000	15.44097100000000	0.37580900000000	0.00000000000000	-0.06203400000000	0.00000000000000	22.64648200000000	0.00000000000000	0.00000000000000	10.75059300000000	0.00000000000000	
7.91497300000000	-54.16961500000000	798.76910299999997	52.28965300000000	0.11004600000000	0.00000000000000	0.10874000000000	-13.18955900000000	72.85945200000000	16.13695000000000	0.37848900000000	0.00000000000000	-0.06246200000000	0.00000000000000	22.57701300000000	0.00000000000000	0.00000000000000	11.33986200000000	0.00000000000000	
7.91663600000000	-54.62213300000000	795.28092100000003	51.86169400000000	0.10951700000000	0.00000000000000	0.10870100000000	-13.17786700000000	78.00552200000000	16.69592700000000	0.38094500000000	0.00000000000000	-0.06288200000000	0.00000000000000	22.50873400000000	0.00000000000000	0.00000000000000	11.84242100000000	0.00000000000000	
7.91830600000000	-55.09131300000000	791.67619300000001	51.41311900000000	0.10898800000000	0.00000000000000	0.10865900000000	-13.00910600000000	82.96635999999999	17.12909200000000	0.38320000000000	0.00000000000000	-0.06329600000000	0.00000000000000	22.44166800000000	0.00000000000000	0.00000000000000	12.26421800000000	0.00000000000000	
7.91997000000000	-55.57705600000000	787.95531600000004	50.94424700000000	0.10845700000000	0.00000000000000	0.10861400000000	-12.70354500000000	87.78359800000000	17.45129800000000	0.38527200000000	0.00000000000000	-0.06370300000000	0.00000000000000	22.37582300000000	0.00000000000000	0.00000000000000	12.61394200000000	0.00000000000000	
7.92163900000000	-56.07916700000000	784.11864500000001	50.45542100000000	0.10792400000000	0.00000000000000	0.10856600000000	-12.28311200000000	92.50692600000001	17.67939400000000	0.38717900000000	0.00000000000000	-0.06410500000000	0.00000000000000	22.31119300000000	0.00000000000000	0.00000000000000	12.90189500000000	0.00000000000000	
7.92330900000000	-56.59736000000000	780.16649199999995	49.94700800000000	0.10738900000000	0.00000000000000	0.10851500000000	-11.76966600000000	97.18921700000000	17.83067100000000	0.38893700000000	0.00000000000000	-0.06450200000000	0.00000000000000	22.24775500000000	0.00000000000000	0.00000000000000	13.13894400000000	0.00000000000000	
7.92497000000000	-57.13124800000000	776.09912599999996	49.41939800000000	0.10685200000000	0.00000000000000	0.10846100000000	-11.18357800000000	101.88222700000000	17.92154800000000	0.39055800000000	0.00000000000000	-0.06489500000000	0.00000000000000	22.18547100000000	0.00000000000000	0.00000000000000	13.33560100000000	0.00000000000000	
7.92663900000000	-57.68034700000000	771.91676600000005	48.87300200000000	0.10631200000000	0.00000000000000	0.10840300000000	-10.54264700000000	106.63309500000000	17.96653100000000	0.39205500000000	0.00000000000000	-0.06528400000000	0.00000000000000	22.12428600000000	0.00000000000000	0.00000000000000	13.50128900000000	0.00000000000000	
7.92830800000000	-58.24407200000000	767.61958500000003	48.30825100000000	0.10576800000000	0.00000000000000	0.10834300000000	-9.86140700000000	111.48177900000000	17.97751600000000	0.39343800000000	0.00000000000000	-0.06566900000000	0.00000000000000	22.06412800000000	0.00000000000000	0.00000000000000	13.64382600000000	0.00000000000000	
7.92997500000000	-58.82173600000000	763.20770800000003	47.72559300000000	0.10522100000000	0.00000000000000	0.10828000000000	-9.15079100000000	116.45946100000000	17.96339000000000	0.39471600000000	0.00000000000000	-0.06605000000000	0.00000000000000	22.00491100000000	0.00000000000000	0.00000000000000	13.76911300000000	0.00000000000000	
7.93163500000000	-59.41255300000000	758.68121099999996	47.12549600000000	0.10467000000000	0.00000000000000	0.10821300000000	-8.41811700000000	121.58785600000000	17.92993700000000	0.39589900000000	0.00000000000000	-0.06642900000000	0.00000000000000	21.94652900000000	0.00000000000000	0.00000000000000	13.88103400000000	0.00000000000000	
7.93330300000000	-60.01563000000000	754.04012100000000	46.50844200000000	0.10411500000000	0.00000000000000	0.10814300000000	-7.66734000000000	126.87933300000000	17.87998500000000	0.39699300000000	0.00000000000000	-0.06680400000000	0.00000000000000	21.88886200000000	0.00000000000000	0.00000000000000	13.98151700000000	0.00000000000000	
7.93497200000000	-60.62997600000000	749.28442199999995	45.87492800000000	0.10355700000000	0.00000000000000	0.10807000000000	-6.89950900000000	132.33767100000000	17.81374600000000	0.39800500000000	0.00000000000000	-0.06717600000000	0.00000000000000	21.83177200000000	0.00000000000000	0.00000000000000	14.07074300000000	0.00000000000000	
7.93663900000000	-61.25449700000000	744.41405099999997	45.22546600000000	0.10299300000000	0.00000000000000	0.10799400000000	-6.11334300000000	137.95928799999999	17.72928500000000	0.39894200000000	0.00000000000000	-0.06754500000000	0.00000000000000	21.77510400000000	0.00000000000000	0.00000000000000	14.14743300000000	0.00000000000000	
7.93830400000000	-61.88799800000000	739.42890799999998	44.56058100000000	0.10242600000000	0.00000000000000	0.10791400000000	-5.30587600000000	143.73476099999999	17.62306600000000	0.39980900000000	0.00000000000000	-0.06791100000000	0.00000000000000	21.71868900000000	0.00000000000000	0.00000000000000	14.20920900000000	0.00000000000000	
7.93997100000000	-62.52918500000000	734.32884999999999	43.88080900000000	0.10185300000000	0.00000000000000	0.10783100000000	-4.47309900000000	149.65047200000001	17.49050500000000	0.40061000000000	0.00000000000000	-0.06827400000000	0.00000000000000	21.66233900000000	0.00000000000000	0.00000000000000	14.25296300000000	0.00000000000000	
7.94163800000000	-63.17666900000000	729.11370499999998	43.18669700000000	0.10127600000000	0.00000000000000	0.10774500000000	-3.61056100000000	155.69022500000000	17.32651200000000	0.40135100000000	0.00000000000000	-0.06863400000000	0.00000000000000	21.60585400000000	0.00000000000000	0.00000000000000	14.27521100000000	0.00000000000000	
7.94330100000000	-63.82896500000000	723.78326900000002	42.47880500000000	0.10069500000000	0.00000000000000	0.10765500000000	-2.71388200000000	161.83673999999999	17.12596200000000	0.40203400000000	0.00000000000000	-0.06899100000000	0.00000000000000	21.54901600000000	0.00000000000000	0.00000000000000	14.27242100000000	0.00000000000000	
7.94497400000000	-64.48449599999999	718.33731399999999	41.75769900000000	0.10010900000000	0.00000000000000	0.10756200000000	-1.77917300000000	168.07291900000001	16.88408500000000	0.40266400000000	0.00000000000000	-0.06934500000000	0.00000000000000	21.49159400000000	0.00000000000000	0.00000000000000	14.24127700000000	0.00000000000000	
7.94663800000000	-65.14159600000001	712.77559499999995	41.02395600000000	0.09951800000000	0.00000000000000	0.10746600000000	-0.80332800000000	174.38284100000001	16.59676300000000	0.40324300000000	0.00000000000000	-0.06969600000000	0.00000000000000	21.43334300000000	0.00000000000000	0.00000000000000	14.17888800000000	0.00000000000000	
7.94830100000000	-65.79851800000000	707.09785599999998	40.27816400000000	0.09892300000000	0.00000000000000	0.10736600000000	0.21578900000000	180.75248099999999	16.26072400000000	0.40377400000000	0.00000000000000	-0.07004400000000	0.00000000000000	21.37400500000000	0.00000000000000	0.00000000000000	14.08292300000000	0.00000000000000	
7.94996800000000	-66.45343099999999	701.30383400000005	39.52091400000000	0.09832300000000	0.00000000000000	0.10726300000000	1.27926400000000	187.17012500000001	15.87364600000000	0.40426000000000	0.00000000000000	-0.07038900000000	0.00000000000000	21.31330800000000	0.00000000000000	0.00000000000000	13.95168900000000	0.00000000000000	
7.95163400000000	-67.10443100000001	695.39327400000002	38.75280900000000	0.09771900000000	0.00000000000000	0.10715700000000	2.38714900000000	193.62654599999999	15.43417500000000	0.40470300000000	0.00000000000000	-0.07073000000000	0.00000000000000	21.25097200000000	0.00000000000000	0.00000000000000	13.78415200000000	0.00000000000000	
